<svg viewBox="0 0 1024 1024" xml:space="preserve" xmlns="http://www.w3.org/2000/svg"><path fill="#021D40" d="M120.78 258.813c21.271-28.823 44.348-55.625 70.078-80.026 26.797-25.41 55.663-48.2 87.04-67.848C318.816 85.316 363.39 68.9 409.988 57.61c23.557-5.707 47.48-9.304 71.79-10.831 25.45-1.599 50.478-.393 75.092 6.275 12.43 3.367 24.01 8.64 33.933 17.22 18.054 15.61 18.62 39.012 10.166 58.536a128.258 128.258 0 0 1-9.584 18.03c-7.418 11.607-18.991 16.943-32.051 18.92-10.642 1.612-21.424 2.429-32.173 3.168-26.326 1.811-52.926 1.668-78.922 5.583-20.32 3.06-40.197 10.19-59.736 17.038-24.222 8.489-46.693 20.934-67.683 35.687-12.32 8.659-24.016 18.271-35.506 28.028-25.267 21.457-45.906 46.998-63.704 74.816-17.827 27.864-30.69 58.014-40.822 89.486-4.045 12.565-9.51 24.799-15.532 36.567-6.957 13.597-19.17 21.292-33.748 25.06-16.057 4.149-31.818 4.148-46.968-3.93-16.138-8.604-25.925-21.694-29.545-39.641-4.197-20.812-.94-40.995 4.724-60.972 8.633-30.448 22.449-58.55 39.365-85.172 6.945-10.93 14.294-21.606 21.697-32.666z" style="fill:#f9f9f9"/><path fill="#021d40" d="M898.718 766.415c-21.068 29.14-43.926 56.237-69.413 80.905-26.542 25.69-55.135 48.73-86.214 68.594-40.53 25.904-84.683 42.5-130.838 53.914-23.334 5.77-47.03 9.406-71.11 10.95-25.208 1.616-50 .397-74.38-6.344-12.311-3.404-23.782-8.736-33.611-17.41-17.884-15.782-18.443-39.44-10.07-59.179a130.597 130.597 0 0 1 9.494-18.228c7.347-11.734 18.81-17.13 31.747-19.128 10.54-1.63 21.22-2.455 31.868-3.202 26.076-1.831 52.423-1.686 78.173-5.645 20.128-3.094 39.816-10.302 59.17-17.225 23.993-8.582 46.25-21.164 67.042-36.079 12.202-8.754 23.788-18.472 35.168-28.336 25.029-21.692 45.471-47.514 63.101-75.638 17.658-28.17 30.399-58.651 40.435-90.47 4.007-12.702 9.42-25.07 15.385-36.968 6.89-13.746 18.988-21.526 33.428-25.335 15.905-4.194 31.516-4.194 46.523 3.973 15.985 8.699 25.68 21.932 29.265 40.077 4.157 21.04.931 41.445-4.68 61.642-8.55 30.782-22.235 59.193-38.991 86.107-6.88 11.051-14.159 21.843-21.492 33.025z" style="stroke-width:1.0007;fill:#f9f9f9"/><path fill="#021D40" d="M421.442 778.653c-20.777-6.572-40.233-15.167-58.003-27.065-19.59-13.116-36.457-29.14-50.17-48.542-14.185-20.067-24.155-41.978-30.435-65.583-1.732-6.51-2.24-13.417-2.679-20.182-.666-10.281-1.006-20.596-1.094-30.9-.419-48.795-1.172-97.594-.83-146.384.158-22.498.845-45.132 9.08-66.772 8.189-21.517 19.653-40.901 34.421-58.497 17.132-20.413 37.833-36.449 61.321-48.553 22.42-11.554 46.04-19.31 71.904-19.327 32.267-.021 64.531-1.554 96.8-1.717 33.721-.17 65.98 6.678 95.932 22.775 14.243 7.654 27.268 16.975 39.473 27.636 21.017 18.36 36.876 40.485 48.274 65.707 7.589 16.791 12.97 34.094 13.85 53.099 2.798 60.436 1.37 120.876 1.567 181.31.106 32.296-9.51 62.083-25.58 89.996-10.032 17.423-21.946 33.423-36.617 47-26.33 24.366-56.66 41.786-92.447 47.957-12.057 2.08-24.42 2.55-36.67 3.292-11.28.683-22.6 1.047-33.9 1.003-16.965-.065-33.948-.22-50.888-1.062-16.06-.798-32.076-2.504-48.105-3.882-1.63-.14-3.219-.763-5.204-1.309m-29.968-389.589c-1.212 3.262-2.614 6.467-3.603 9.796-4.88 16.422-5.122 33.45-5.713 50.322-.676 19.307-.401 38.66-.098 57.986.42 26.77 1.033 53.543 1.986 80.3.651 18.302 3.427 36.377 9.305 53.777 6.754 19.994 19.29 34.67 39.207 43.205 16.272 6.973 33.092 9.432 50.479 9.525 19.496.106 38.997.233 58.49-.065 9.44-.144 19.026-.365 28.261-2.084 18.562-3.455 35.606-10.621 49.23-24.354 10.44-10.525 15.512-23.775 19.018-37.79 5.883-23.51 7.485-47.643 7.647-71.617.303-45.088 1.76-90.208-1.516-135.298-2.36-32.47-19.139-54.938-46.765-69.75-20.056-10.754-42.36-14.603-64.855-15.801-14.344-.765-28.812.038-43.187.832-18.527 1.025-36.525 5.12-53.65 12.275-18.725 7.823-33.978 19.942-44.236 38.741z" style="mix-blend-mode:normal;fill:#214a77;fill-opacity:1"/><path fill="#021D40" d="M133.211 786.808c-9.897-15.182-19.878-29.894-29.163-45.033-16.475-26.86-29.9-55.28-39.777-85.17-4.605-13.936-8.056-28.503-9.822-43.052-1.646-13.565 3.38-26.406 12.474-36.768 17.757-20.235 40.436-26.019 66.001-19.6 16.552 4.157 29.377 14.47 36.854 29.857 7.39 15.211 13.466 31.068 19.963 46.705 14.8 35.62 33.108 69.207 57.643 99.136 8.298 10.123 16.397 20.58 25.862 29.536 13.465 12.741 27.93 24.453 42.287 36.217 20.66 16.927 32.518 37.938 29.204 65.146-3.25 26.682-24.422 45.173-51.114 46.314-20.718.886-38.698-5.95-55.89-16.614-22.823-14.159-42.435-32.154-60.246-51.87-15.639-17.31-29.436-36.286-44.276-54.804z" style="fill:#f9f9f9"/><path fill="#021D40" d="M688.812 134.86c13.014-15.674 29.519-22.924 49.388-21.761 34.185 2.001 58.916 27.375 56.677 62.03-1.733 26.811-22.8 49.96-49.229 53.573-33.196 4.54-62.305-18.663-68.28-48.656-3.267-16.397 1.108-31.528 11.444-45.185z" style="fill:#214a77;fill-opacity:1"/></svg>